<svg width="247" height="146" viewBox="0 0 247 146" fill="none" xmlns="http://www.w3.org/2000/svg">
<g filter="url(#filter0_i_1004_2)">
<line x1="42.7765" y1="40" x2="42.7765" y2="132.563" stroke="black" stroke-width="30"/>
<line x1="28.2253" y1="15" x2="57.3952" y2="15" stroke="black" stroke-width="30"/>
<line y1="-15" x2="246.002" y2="-15" transform="matrix(0.999994 -0.00355302 0.00429453 0.999991 1 146)" stroke="black" stroke-width="30"/>
</g>
<path d="M82.3667 107H71.6V85.4333L69.6 84.2V80.6333L76.7667 78.6667H82.4333V82.9667L82.8333 82.4667C83.1 82.1111 83.4889 81.6889 84 81.2C84.5333 80.7111 85.1222 80.2333 85.7667 79.7667C86.4111 79.2778 87.1778 78.8667 88.0667 78.5333C88.9778 78.1778 89.8667 78 90.7333 78C93.7778 78 95.9222 78.8333 97.1667 80.5C98.4333 82.1667 99.0667 84.9556 99.0667 88.8667C99.0667 89 99.0667 89.2 99.0667 89.4667C99.0444 89.7333 99.0333 89.9444 99.0333 90.1V107H88.0333V89.1333C88.1 87.0444 87.2111 86 85.3667 86C85.2333 86 85.1 86.0111 84.9667 86.0333C84.8556 86.0556 84.7444 86.0778 84.6333 86.1C84.5444 86.1222 84.4333 86.1667 84.3 86.2333C84.1889 86.2778 84.0889 86.3222 84 86.3667C83.9111 86.3889 83.8111 86.4444 83.7 86.5333C83.5889 86.6 83.5 86.6556 83.4333 86.7C83.3667 86.7444 83.2667 86.8222 83.1333 86.9333C83.0222 87.0222 82.9333 87.0889 82.8667 87.1333C82.8222 87.1778 82.7333 87.2556 82.6 87.3667C82.4889 87.4556 82.4111 87.5222 82.3667 87.5667V107ZM111.041 107.7C108.041 107.7 105.941 106.8 104.741 105C103.563 103.2 102.974 100.156 102.974 95.8667V84.5333H100.674V79.9L104.607 78.6667L108.007 70.9H113.874V78.6667H119.341V84.5333H113.774V96.9333C113.774 98.7111 114.03 99.8889 114.541 100.467C115.052 101.044 115.841 101.333 116.907 101.333C117.374 101.333 117.796 101.278 118.174 101.167C118.552 101.056 118.863 100.9 119.107 100.7V105.233C118.774 105.567 118.341 105.9 117.807 106.233C117.274 106.544 116.385 106.867 115.141 107.2C113.918 107.533 112.552 107.7 111.041 107.7ZM137.25 89.7667C137.25 86.9444 137.106 84.9444 136.817 83.7667C136.528 82.5889 135.995 82 135.217 82C134.55 82 134.006 82.1222 133.584 82.3667C133.161 82.5889 132.85 82.9556 132.65 83.4667C132.45 83.9556 132.317 84.4667 132.25 85C132.206 85.5111 132.184 86.1667 132.184 86.9667V89.7667H137.25ZM134.584 107.7C132.095 107.7 129.928 107.322 128.084 106.567C126.261 105.811 124.817 104.756 123.75 103.4C122.706 102.044 121.939 100.522 121.45 98.8333C120.961 97.1222 120.717 95.2222 120.717 93.1333C120.717 88.1556 121.984 84.3889 124.517 81.8333C127.05 79.2778 130.595 78 135.15 78C139.528 78 142.661 79.0333 144.55 81.1C146.439 83.1444 147.384 86.4444 147.384 91V94.7H132.15V95.3333C132.15 96.6444 132.284 97.7222 132.55 98.5667C132.839 99.4111 133.25 100.033 133.784 100.433C134.317 100.833 134.861 101.1 135.417 101.233C135.972 101.367 136.65 101.433 137.45 101.433C138.228 101.433 139.061 101.333 139.95 101.133C140.861 100.933 141.772 100.622 142.684 100.2C143.617 99.7778 144.395 99.2778 145.017 98.7L146.984 102.067C146.161 103.4 144.95 104.522 143.35 105.433C141.772 106.322 140.25 106.922 138.784 107.233C137.317 107.544 135.917 107.7 134.584 107.7ZM161.761 107H150.995V85.4333L148.995 84.2V80.4333L156.161 78.6667H158.861L159.828 86.6C160.739 81.1556 163.661 78.4333 168.595 78.4333C169.15 78.4333 169.728 78.5333 170.328 78.7333L169.195 90.6C168.728 90.1778 167.706 89.9667 166.128 89.9667C163.861 89.9667 162.406 90.5667 161.761 91.7667V107ZM179.434 107L169.634 78.6667H181.601L183.734 88.9L185.267 97.7333L186.967 88.9L189.434 78.6667H198.434L189.934 107H179.434ZM216.611 102.567C216.478 102.878 216.2 103.289 215.778 103.8C215.378 104.311 214.844 104.878 214.178 105.5C213.511 106.1 212.689 106.611 211.711 107.033C210.733 107.478 209.744 107.7 208.744 107.7C205.611 107.7 203.366 106.767 202.011 104.9C200.678 103.033 200.011 99.9222 200.011 95.5667V83.7L198.844 82.5V78.6667H210.944V97.6667C210.922 98.6667 211.089 99.4111 211.444 99.9C211.8 100.367 212.444 100.6 213.378 100.6C213.511 100.6 213.633 100.6 213.744 100.6C213.855 100.578 213.966 100.556 214.078 100.533C214.189 100.489 214.278 100.456 214.344 100.433C214.433 100.411 214.533 100.378 214.644 100.333C214.755 100.267 214.844 100.211 214.911 100.167C214.978 100.122 215.066 100.067 215.178 100C215.289 99.9111 215.366 99.8444 215.411 99.8C215.478 99.7556 215.566 99.6889 215.678 99.6C215.811 99.4889 215.911 99.4111 215.978 99.3667V83.7L214.178 82.5V78.6667H226.878V107H217.644L216.611 102.567Z" fill="#AD2382"/>
<defs>
<filter id="filter0_i_1004_2" x="0.871164" y="0" width="254.129" height="154" filterUnits="userSpaceOnUse" color-interpolation-filters="sRGB">
<feFlood flood-opacity="0" result="BackgroundImageFix"/>
<feBlend mode="normal" in="SourceGraphic" in2="BackgroundImageFix" result="shape"/>
<feColorMatrix in="SourceAlpha" type="matrix" values="0 0 0 0 0 0 0 0 0 0 0 0 0 0 0 0 0 0 127 0" result="hardAlpha"/>
<feOffset dx="8" dy="8"/>
<feGaussianBlur stdDeviation="4"/>
<feComposite in2="hardAlpha" operator="arithmetic" k2="-1" k3="1"/>
<feColorMatrix type="matrix" values="0 0 0 0 0 0 0 0 0 0 0 0 0 0 0 0 0 0 0.4 0"/>
<feBlend mode="normal" in2="shape" result="effect1_innerShadow_1004_2"/>
</filter>
</defs>
</svg>
